<?xml version="1.0" standalone="no"?>
<!DOCTYPE svg PUBLIC "-//W3C//DTD SVG 20010904//EN"
 "http://www.w3.org/TR/2001/REC-SVG-20010904/DTD/svg10.dtd">
<svg version="1.0" xmlns="http://www.w3.org/2000/svg"
 width="225.000000pt" height="225.000000pt" viewBox="0 0 225.000000 225.000000"
 preserveAspectRatio="xMidYMid meet">
<metadata>
Created by potrace 1.15, written by Peter Selinger 2001-2017
</metadata>
<g transform="translate(0.000000,225.000000) scale(0.100000,-0.100000)"
fill="#000000" stroke="none">
<path d="M1740 1960 c-74 -22 -444 -123 -823 -226 l-687 -188 0 -596 c0 -572
1 -596 20 -627 10 -18 34 -40 52 -50 31 -17 81 -18 823 -18 742 0 792 1 823
18 18 10 42 32 52 50 19 31 20 54 20 519 l0 488 -737 2 -737 3 704 192 c387
106 707 196 712 201 9 9 -48 237 -65 260 -11 15 5 18 -157 -28z m-217 -207
c64 -49 117 -90 117 -93 0 -3 -62 -23 -138 -43 l-139 -38 -121 92 c-67 51
-121 93 -119 95 5 5 251 73 268 73 9 1 68 -38 132 -86z m-612 -164 c65 -50
117 -95 114 -99 -3 -4 -17 -10 -32 -13 -16 -4 -76 -19 -134 -36 l-106 -29
-122 94 -122 93 68 20 c62 18 204 58 211 60 2 1 57 -40 123 -90z m189 -283 c0
-2 -52 -42 -115 -90 l-115 -86 -190 2 -189 3 112 87 112 87 193 0 c105 1 192
-1 192 -3z m740 -3 c-1 -5 -51 -45 -112 -90 l-112 -83 -190 0 c-118 0 -186 4
-181 9 6 6 57 46 115 90 l105 81 188 0 c103 0 187 -3 187 -7z m-23 -444 c6 -6
9 -18 6 -25 -4 -12 -119 -14 -698 -14 -471 0 -696 3 -700 10 -4 6 -1 17 5 25
11 13 110 15 694 15 491 0 685 -3 693 -11z m1 -226 l3 -23 -695 0 c-474 0
-697 3 -701 10 -4 6 -4 18 -1 26 5 12 99 14 698 12 l693 -3 3 -22z m-1 -194
c6 -6 9 -18 6 -25 -4 -12 -119 -14 -698 -14 -471 0 -696 3 -700 10 -4 6 -1 17
5 25 11 13 110 15 694 15 491 0 685 -3 693 -11z"/>
</g>
</svg>
